<svg width="112" height="112" viewBox="0 0 112 112" fill="none" xmlns="http://www.w3.org/2000/svg">
<g clip-path="url(#clip0_166_1262)">
<path d="M27 58.0001C39.6667 46.6668 53.3333 44.3334 68 51.0001L83 60.0001L74 75.0001L39 76.0001L23 68.0001L27 58.0001Z" fill="#8C6A58" stroke="#211B17" stroke-width="2.7" stroke-linecap="round" stroke-linejoin="round"/>
<path d="M69 51L75 25L84 46L91 29L93 58L83 68L70 62L69 51Z" fill="#8C6A58" stroke="#211B17" stroke-width="2.7" stroke-linecap="round" stroke-linejoin="round"/>
<path d="M34 73L31 94H40L45 74L34 73ZM63 73L68 94H77L72 72L63 73Z" fill="#3A3029" stroke="#211B17" stroke-width="2.7" stroke-linecap="round" stroke-linejoin="round"/>
<path d="M23 57C14.3333 49 12 52.6667 16 68L27 69L23 57Z" fill="#B94A45" stroke="#211B17" stroke-width="2.7" stroke-linecap="round" stroke-linejoin="round"/>
<path d="M85 58C86.6569 58 88 56.6569 88 55C88 53.3431 86.6569 52 85 52C83.3431 52 82 53.3431 82 55C82 56.6569 83.3431 58 85 58Z" fill="#C9A466" stroke="#211B17" stroke-width="2.7" stroke-linecap="round" stroke-linejoin="round"/>
<path d="M88 63L100 66L89 72L88 63Z" fill="#F2E8D5" stroke="#211B17" stroke-width="2.7" stroke-linecap="round" stroke-linejoin="round"/>
<path d="M42 49C46.6667 40.3333 51 40.3333 55 49L53 61H45L42 49ZM57 50C61.6667 41.3333 65.3333 41.6667 68 51L66 62H59L57 50Z" fill="#B94A45" stroke="#211B17" stroke-width="2.7" stroke-linecap="round" stroke-linejoin="round"/>
</g>
<defs>
<clipPath id="clip0_166_1262">
<rect width="112" height="112" fill="white"/>
</clipPath>
</defs>
</svg>
