<svg width="96" height="96" viewBox="0 0 96 96" fill="none" xmlns="http://www.w3.org/2000/svg">
<path d="M44.2511 5.16363L53.8518 17.3733L58.7992 49.0627L48.696 55.9696L37.547 50.9221L36.9164 18.855L44.2511 5.16363Z" fill="#6A3520" stroke="#281914" stroke-width="4" stroke-linecap="square"/>
<path d="M45.2973 17.118L50.0665 25.7351L46.8661 35.0495L42.0969 26.4323L45.2973 17.118Z" fill="#F5B347"/>
<path d="M29.6814 56.6293L38.3857 52.8563L43.9767 59.3939L53.9387 58.5224L58.3096 51.1132L67.5368 53.3174L58.3592 63.1547L40.4277 64.7235L29.6814 56.6293Z" fill="#E76646" stroke="#281914" stroke-width="3" stroke-linecap="square"/>
<path d="M54.2881 62.5072L44.3262 63.3787L45.9821 82.3064L55.9441 81.4349L54.2881 62.5072Z" fill="#8E542D" stroke="#281914" stroke-width="3" stroke-linecap="square"/>
<path d="M55.72 67.401L43.7656 68.4468L44.1142 72.4316L56.0686 71.3857L55.72 67.401Z" fill="#E76646"/>
<path d="M62.096 82.9043L40.1797 84.8217L40.7898 91.7951L62.7061 89.8777L62.096 82.9043Z" fill="#F5B347" stroke="#281914" stroke-width="3" stroke-linecap="square"/>
<path d="M15 18L20 13L25 18L20 23L15 18Z" fill="#F5B347"/>
</svg>
